<?xml version="1.0" encoding="UTF-8"?>
<svg width="400" height="300" viewBox="0 0 400 300" fill="none" xmlns="http://www.w3.org/2000/svg">
  <!-- Background -->
  <rect width="400" height="300" rx="16" fill="#F5F7FF"/>
  
  <!-- Calendar frame -->
  <rect x="50" y="40" width="300" height="220" rx="12" fill="white" stroke="#E2E8F0" stroke-width="2"/>
  
  <!-- Calendar header -->
  <rect x="50" y="40" width="300" height="50" rx="12" fill="#3B82F6"/>
  <text x="75" y="72" font-family="Arial" font-weight="bold" font-size="20" fill="white">June 2025</text>
  
  <!-- Calendar weekdays -->
  <text x="70" y="110" font-family="Arial" font-weight="bold" font-size="12" fill="#64748B">S</text>
  <text x="110" y="110" font-family="Arial" font-weight="bold" font-size="12" fill="#64748B">M</text>
  <text x="150" y="110" font-family="Arial" font-weight="bold" font-size="12" fill="#64748B">T</text>
  <text x="190" y="110" font-family="Arial" font-weight="bold" font-size="12" fill="#64748B">W</text>
  <text x="230" y="110" font-family="Arial" font-weight="bold" font-size="12" fill="#64748B">T</text>
  <text x="270" y="110" font-family="Arial" font-weight="bold" font-size="12" fill="#64748B">F</text>
  <text x="310" y="110" font-family="Arial" font-weight="bold" font-size="12" fill="#64748B">S</text>
  
  <!-- Calendar days -->
  <!-- Row 1 -->
  <text x="70" y="140" font-family="Arial" font-size="12" fill="#94A3B8">26</text>
  <text x="110" y="140" font-family="Arial" font-size="12" fill="#94A3B8">27</text>
  <text x="150" y="140" font-family="Arial" font-size="12" fill="#94A3B8">28</text>
  <text x="190" y="140" font-family="Arial" font-size="12" fill="#94A3B8">29</text>
  <text x="230" y="140" font-family="Arial" font-size="12" fill="#94A3B8">30</text>
  <text x="270" y="140" font-family="Arial" font-size="12" fill="#334155">1</text>
  <text x="310" y="140" font-family="Arial" font-size="12" fill="#334155">2</text>
  
  <!-- Row 2 -->
  <text x="70" y="170" font-family="Arial" font-size="12" fill="#334155">3</text>
  <text x="110" y="170" font-family="Arial" font-size="12" fill="#334155">4</text>
  <text x="150" y="170" font-family="Arial" font-size="12" fill="#334155">5</text>
  <text x="190" y="170" font-family="Arial" font-size="12" fill="#334155">6</text>
  <text x="230" y="170" font-family="Arial" font-size="12" fill="#334155">7</text>
  <text x="270" y="170" font-family="Arial" font-size="12" fill="#334155">8</text>
  <text x="310" y="170" font-family="Arial" font-size="12" fill="#334155">9</text>
  
  <!-- Row 3 -->
  <text x="70" y="200" font-family="Arial" font-size="12" fill="#334155">10</text>
  <text x="110" y="200" font-family="Arial" font-size="12" fill="#334155">11</text>
  <text x="150" y="200" font-family="Arial" font-size="12" fill="#334155">12</text>
  
  <!-- Today -->
  <circle cx="190" cy="196" r="12" fill="#EFF6FF" stroke="#3B82F6" stroke-width="2"/>
  <text x="185" y="200" font-family="Arial" font-weight="bold" font-size="12" fill="#3B82F6">13</text>
  
  <text x="230" y="200" font-family="Arial" font-size="12" fill="#334155">14</text>
  <text x="270" y="200" font-family="Arial" font-size="12" fill="#334155">15</text>
  <text x="310" y="200" font-family="Arial" font-size="12" fill="#334155">16</text>
  
  <!-- Row 4 -->
  <text x="70" y="230" font-family="Arial" font-size="12" fill="#334155">17</text>
  <text x="110" y="230" font-family="Arial" font-size="12" fill="#334155">18</text>
  <text x="150" y="230" font-family="Arial" font-size="12" fill="#334155">19</text>
  <text x="190" y="230" font-family="Arial" font-size="12" fill="#334155">20</text>
  <text x="230" y="230" font-family="Arial" font-size="12" fill="#334155">21</text>
  <text x="270" y="230" font-family="Arial" font-size="12" fill="#334155">22</text>
  <text x="310" y="230" font-family="Arial" font-size="12" fill="#334155">23</text>
  
  <!-- Available slot indicators -->
  <circle cx="150" cy="196" r="3" fill="#10B981"/>
  <circle cx="230" cy="196" r="3" fill="#10B981"/>
  <circle cx="270" cy="196" r="3" fill="#10B981"/>
  
  <!-- Clock icon -->
  <circle cx="330" cy="70" r="15" fill="white" opacity="0.9"/>
  <circle cx="330" cy="70" r="12" fill="none" stroke="#3B82F6" stroke-width="2"/>
  <line x1="330" y1="70" x2="330" y2="63" stroke="#3B82F6" stroke-width="2" stroke-linecap="round"/>
  <line x1="330" y1="70" x2="335" y2="70" stroke="#3B82F6" stroke-width="2" stroke-linecap="round"/>
</svg>
